<svg width="17" height="18" viewBox="0 0 17 18" fill="none" xmlns="http://www.w3.org/2000/svg">
<g clip-path="url(#clip0_1_2477)">
<g clip-path="url(#clip1_1_2477)">
<path d="M12.8513 10.802C12.537 10.4748 12.1579 10.2999 11.7562 10.2999C11.3577 10.2999 10.9754 10.4716 10.6482 10.7988L9.62439 11.8193C9.54016 11.774 9.45592 11.7319 9.37493 11.6897C9.25829 11.6314 9.14814 11.5763 9.05418 11.518C8.0952 10.9089 7.22368 10.1152 6.38781 9.08816C5.98283 8.57627 5.71069 8.14538 5.51306 7.708C5.77872 7.46501 6.02495 7.21231 6.2647 6.96932C6.35541 6.87861 6.44613 6.78465 6.53684 6.69394C7.21721 6.01357 7.21721 5.13234 6.53684 4.45198L5.65237 3.56751C5.55194 3.46708 5.44826 3.3634 5.35107 3.25973C5.15668 3.05886 4.95257 2.85151 4.74198 2.65712C4.42772 2.3461 4.0519 2.18087 3.65664 2.18087C3.26138 2.18087 2.87909 2.3461 2.5551 2.65712L2.54862 2.6636L1.44709 3.77486C1.03239 4.18956 0.795881 4.69497 0.744044 5.28138C0.666289 6.2274 0.944913 7.10863 1.15874 7.68532C1.68359 9.10112 2.46763 10.4132 3.6372 11.8193C5.05624 13.5138 6.76363 14.8518 8.714 15.7946C9.45916 16.1477 10.4538 16.5657 11.565 16.6369C11.6331 16.6402 11.7044 16.6434 11.7692 16.6434C12.5176 16.6434 13.1461 16.3745 13.6385 15.8399C13.6418 15.8335 13.6482 15.8302 13.6515 15.8237C13.82 15.6196 14.0143 15.435 14.2185 15.2373C14.3578 15.1045 14.5003 14.9652 14.6396 14.8194C14.9604 14.4857 15.1288 14.0969 15.1288 13.6984C15.1288 13.2967 14.9571 12.9112 14.6299 12.5872L12.8513 10.802ZM14.0111 14.2136C14.0079 14.2136 14.0079 14.2168 14.0111 14.2136C13.8848 14.3496 13.7552 14.4727 13.6158 14.6088C13.4053 14.8097 13.1914 15.0203 12.9906 15.2568C12.6633 15.6067 12.2778 15.7719 11.7724 15.7719C11.7238 15.7719 11.672 15.7719 11.6234 15.7687C10.6611 15.7071 9.76694 15.3313 9.0963 15.0106C7.26256 14.1228 5.65237 12.8626 4.31433 11.2653C3.20955 9.93376 2.47087 8.70263 1.98166 7.38078C1.68035 6.57406 1.5702 5.94554 1.6188 5.35265C1.65119 4.97359 1.79699 4.65933 2.06589 4.39042L3.17067 3.28565C3.32942 3.13661 3.49789 3.05562 3.66312 3.05562C3.86723 3.05562 4.03246 3.17873 4.13614 3.28241L4.14586 3.29213C4.34348 3.4768 4.53139 3.66795 4.72902 3.87205C4.82946 3.97573 4.93313 4.0794 5.03681 4.18632L5.92128 5.07079C6.2647 5.41421 6.2647 5.73171 5.92128 6.07513C5.82732 6.16909 5.73661 6.26304 5.64265 6.35376C5.37051 6.63238 5.11132 6.89157 4.82946 7.14427C4.82298 7.15075 4.8165 7.15399 4.81326 7.16047C4.53463 7.4391 4.58647 7.71124 4.64479 7.89591L4.65451 7.92507C4.88453 8.48232 5.20852 9.00717 5.70097 9.63245L5.70421 9.63569C6.5984 10.7372 7.54119 11.5958 8.58117 12.2535C8.714 12.3377 8.85007 12.4057 8.97967 12.4705C9.0963 12.5289 9.20645 12.5839 9.30041 12.6422C9.31337 12.6487 9.32633 12.6584 9.33929 12.6649C9.44944 12.72 9.55311 12.7459 9.66003 12.7459C9.92893 12.7459 10.0974 12.5774 10.1525 12.5224L11.2605 11.4144C11.3707 11.3042 11.5456 11.1714 11.7497 11.1714C11.9506 11.1714 12.1158 11.2977 12.2162 11.4079L12.2227 11.4144L14.0079 13.1995C14.3416 13.53 14.3416 13.8701 14.0111 14.2136ZM9.01531 4.94443C9.86414 5.08699 10.6352 5.48872 11.2508 6.10429C11.8663 6.71986 12.2648 7.49093 12.4106 8.33977C12.4463 8.55359 12.6309 8.70262 12.8415 8.70262C12.8675 8.70262 12.8901 8.69939 12.916 8.69615C13.1558 8.65727 13.3145 8.43048 13.2757 8.19073C13.1007 7.16371 12.6147 6.2274 11.8728 5.48548C11.1309 4.74357 10.1946 4.25759 9.16758 4.08264C8.92783 4.04376 8.70428 4.20252 8.66217 4.43902C8.62005 4.67553 8.77556 4.90556 9.01531 4.94443ZM16.0522 8.06438C15.7639 6.37319 14.9669 4.83428 13.7422 3.60963C12.5176 2.38498 10.9786 1.58798 9.28745 1.29964C9.05094 1.25752 8.8274 1.41951 8.78528 1.65602C8.7464 1.89576 8.90515 2.11931 9.1449 2.16143C10.6547 2.41737 12.0316 3.13337 13.1266 4.22519C14.2217 5.32025 14.9345 6.69718 15.1904 8.20693C15.226 8.42076 15.4107 8.56979 15.6213 8.56979C15.6472 8.56979 15.6699 8.56655 15.6958 8.56331C15.9323 8.52768 16.0943 8.30089 16.0522 8.06438Z" fill="white"/>
</g>
</g>
<defs>
<clipPath id="clip0_1_2477">
<rect width="16.746" height="16.746" fill="white" transform="translate(0.0219727 0.595215)"/>
</clipPath>
<clipPath id="clip1_1_2477">
<rect width="15.3505" height="15.3505" fill="white" transform="translate(0.719727 1.29272)"/>
</clipPath>
</defs>
</svg>
