<svg width="25" height="12" viewBox="0 0 25 12" fill="none" xmlns="http://www.w3.org/2000/svg">
<path d="M0.805298 5.96826L23.6927 5.96826" stroke="white" stroke-width="0.726793"/>
<path fill-rule="evenodd" clip-rule="evenodd" d="M18.5656 0.725696C18.7059 1.66591 19.1405 3.06539 20.0005 4.23152C20.5312 4.95109 21.2307 5.58911 22.1246 5.96799C21.2307 6.34688 20.5312 6.98489 20.0005 7.70446C19.1405 8.87059 18.7059 10.2701 18.5656 11.2103L19.2844 11.3176C19.4115 10.4659 19.8113 9.18551 20.5854 8.13583C21.3281 7.12883 22.3976 6.35274 23.9045 6.33143C23.9467 6.33193 23.9891 6.33193 24.0317 6.33142C24.0389 6.33152 24.0461 6.33163 24.0533 6.33177L24.0533 6.33111C24.0578 6.33104 24.0622 6.33097 24.0667 6.33088L24.06 5.96799L24.0667 5.6051C24.0622 5.60501 24.0578 5.60494 24.0533 5.60486L24.0533 5.60421C24.0461 5.60435 24.0389 5.60446 24.0317 5.60456C23.9891 5.60405 23.9467 5.60405 23.9045 5.60455C22.3976 5.58324 21.3281 4.80715 20.5854 3.80015C19.8113 2.75047 19.4115 1.4701 19.2844 0.618408L18.5656 0.725696Z" fill="white"/>
</svg>
