<svg width="" height="" viewBox="0 0 20 24" fill="none" xmlns="http://www.w3.org/2000/svg">
<g id="Group 2">
<path id="Vector" d="M17.9354 8.22485C16.3483 6.62484 16.2243 6.44984 16.2243 6.44984L10.0244 12.7499L3.60143 6.42484C0.377518 8.77486 0.0303252 14.0499 2.18786 16.2249C4.3454 18.3999 10.0492 24 10.0492 24L17.2162 16.7749C19.6962 14.2999 19.6962 9.99987 17.9354 8.22485ZM16.2739 15.8499L10.0492 22.125C8.33809 20.45 4.74218 16.8999 3.15503 15.2749C2.46065 14.5749 2.08867 13.2249 2.18786 11.7749C2.28706 10.4249 2.80786 9.19986 3.57663 8.27485L9.87566 14.5999L16.2243 8.34985C16.4475 8.57486 16.7202 8.84986 17.0178 9.14986C18.1586 10.3499 18.3074 13.7999 16.2739 15.8499Z" fill="white"/>
<path id="Vector_2" d="M4.64305 13.7751C4.49425 13.6251 4.22148 13.0001 4.29588 12.0251L9.45412 17.0501V15.0501L3.65108 9.37505C3.22949 10.0751 2.9567 10.9251 2.8823 11.8251C2.78311 13.0501 3.0807 14.2001 3.62628 14.7501C4.94065 16.0751 7.64377 18.7751 9.42932 20.5251V18.5251C7.74297 16.9001 5.73422 14.8751 4.64305 13.7751Z" fill="white"/>
<path id="Vector_3" d="M17.1175 11.8001C17.1175 11.9001 17.1175 12.0251 17.1175 12.1501C17.0679 12.8751 16.8447 14.2501 15.7783 15.3501L10.5705 20.5751V18.5751L12.5544 16.5751L12.5792 15.0001L10.5705 17.0501V15.0751L16.2 9.37505C16.2992 9.47505 16.3983 9.57505 16.4975 9.67505C16.6711 9.85005 16.8199 10.1251 16.9439 10.5251L15.1088 12.4251L13.5216 14.0501L13.4968 15.6501L14.7864 14.3501C14.836 14.3001 14.8856 14.2501 14.9104 14.2001L17.1175 11.8001Z" fill="white"/>
<path id="Vector_4" d="M9.97439 2.97511L10.892 3.92512L9.18082 5.67514L9.97439 6.47515L11.7103 4.72513L12.6279 5.67514L9.97439 8.37516L7.29608 5.67514L9.97439 2.97511Z" fill="white"/>
<path id="Vector_5" d="M9.97525 0L4.34583 5.67505L9.97525 11.3501L15.6047 5.67505L9.97525 0ZM6.08178 5.67505L9.97525 1.75002L13.8688 5.67505L9.97525 9.60009L6.08178 5.67505Z" fill="white"/>
</g>
</svg>
