<svg width="120" height="120" viewBox="0 0 120 120" fill="none" xmlns="http://www.w3.org/2000/svg">
<path d="M120 60C120 93.1371 93.1371 120 60 120C26.8629 120 0 93.1371 0 60C0 26.8629 26.8629 0 60 0C93.1371 0 120 26.8629 120 60Z" fill="url(#paint0_linear_1_1502)"/>
<path d="M64.1795 24.4715L60.612 22.5122L57.1494 24.4715L57.9888 20.6561L54.9459 17.9751L59.0381 17.5626L60.612 13.9535L62.2908 17.5626L66.278 17.9751L63.2351 20.6561L64.1795 24.4715Z" fill="#DBEFFD"/>
<path d="M73.7277 23.6465L71.3144 22.306L69.006 23.6465L69.6356 21.0685L67.642 19.3155L70.2651 19.1093L71.3144 16.6345L72.4686 19.1093L75.0917 19.3155L73.0981 21.0685L73.7277 23.6465Z" fill="#DBEFFD"/>
<path d="M80.3218 24.6775L78.6222 23.6918L76.9966 24.6775L77.44 22.7819L76.036 21.493L77.8833 21.3413L78.6222 19.5216L79.4351 21.3413L81.2823 21.493L79.8784 22.7819L80.3218 24.6775Z" fill="#DBEFFD"/>
<path d="M43.5976 25.7087L41.8981 24.723L40.2725 25.7087L40.7158 23.8131L39.3119 22.5241L41.1592 22.3725L41.8981 20.5528L42.7109 22.3725L44.5582 22.5241L43.1543 23.8131L43.5976 25.7087Z" fill="#DBEFFD"/>
<path d="M51.7981 23.6465L49.4897 22.306L47.1814 23.6465L47.706 21.0685L45.7124 19.3155L48.3356 19.1093L49.4897 16.6345L50.539 19.1093L53.2671 19.3155L51.1686 21.0685L51.7981 23.6465Z" fill="#DBEFFD"/>
<path d="M48.1997 42.679C48.8824 42.822 49.4308 43.1575 49.8449 43.6854C50.259 44.2024 50.4661 44.7964 50.4661 45.4673C50.4661 46.4352 50.1191 47.2052 49.4252 47.7771C48.7425 48.3381 47.7855 48.6186 46.5544 48.6186H41.0647V37.0364H46.3697C47.5673 37.0364 48.5019 37.3059 49.1734 37.8449C49.8561 38.3838 50.1975 39.1153 50.1975 40.0392C50.1975 40.7212 50.0128 41.2876 49.6434 41.7386C49.2853 42.1896 48.804 42.503 48.1997 42.679ZM43.9355 41.7221H45.8157C46.2858 41.7221 46.644 41.6231 46.8902 41.4251C47.1476 41.2161 47.2763 40.9136 47.2763 40.5177C47.2763 40.1217 47.1476 39.8192 46.8902 39.6102C46.644 39.4013 46.2858 39.2968 45.8157 39.2968H43.9355V41.7221ZM46.0508 46.3417C46.532 46.3417 46.9014 46.2373 47.1588 46.0283C47.4274 45.8083 47.5617 45.4948 47.5617 45.0878C47.5617 44.6809 47.4218 44.3619 47.142 44.1309C46.8734 43.8999 46.4985 43.7844 46.0172 43.7844H43.9355V46.3417H46.0508Z" fill="#DBEFFD"/>
<path d="M55.0271 39.2968V41.6396H58.8716V43.8174H55.0271V46.3582H59.3752V48.6186H52.1563V37.0364H59.3752V39.2968H55.0271Z" fill="#DBEFFD"/>
<path d="M65.5283 48.7341C64.6665 48.7341 63.8943 48.5966 63.2116 48.3216C62.5289 48.0466 61.9804 47.6397 61.5663 47.1007C61.1634 46.5617 60.9508 45.9128 60.9284 45.1538H63.9838C64.0286 45.5828 64.1797 45.9128 64.4371 46.1438C64.6945 46.3637 65.0303 46.4737 65.4444 46.4737C65.8697 46.4737 66.2055 46.3802 66.4517 46.1933C66.6979 45.9953 66.821 45.7258 66.821 45.3848C66.821 45.0988 66.7203 44.8624 66.5189 44.6754C66.3286 44.4884 66.088 44.3344 65.797 44.2134C65.5172 44.0924 65.1142 43.9549 64.5882 43.8009C63.8271 43.57 63.206 43.339 62.7247 43.108C62.2435 42.877 61.8293 42.536 61.4824 42.0851C61.1354 41.6341 60.962 41.0456 60.962 40.3197C60.962 39.2418 61.3593 38.4003 62.1539 37.7954C62.9486 37.1794 63.9838 36.8714 65.2597 36.8714C66.558 36.8714 67.6045 37.1794 68.3991 37.7954C69.1938 38.4003 69.6191 39.2473 69.675 40.3362H66.5692C66.5468 39.9622 66.4069 39.6707 66.1495 39.4618C65.8921 39.2418 65.5619 39.1318 65.159 39.1318C64.8121 39.1318 64.5322 39.2253 64.3196 39.4123C64.1069 39.5882 64.0006 39.8467 64.0006 40.1877C64.0006 40.5617 64.1797 40.8531 64.5378 41.0621C64.896 41.2711 65.4556 41.4966 66.2167 41.7386C66.9777 41.9916 67.5933 42.2335 68.0634 42.4645C68.5446 42.6955 68.9587 43.031 69.3057 43.471C69.6526 43.9109 69.8261 44.4774 69.8261 45.1703C69.8261 45.8303 69.6526 46.4297 69.3057 46.9687C68.9699 47.5077 68.4775 47.9366 67.8283 48.2556C67.1792 48.5746 66.4125 48.7341 65.5283 48.7341Z" fill="#DBEFFD"/>
<path d="M80.096 37.0364V39.2968H76.9734V48.6186H74.1027V39.2968H70.98V37.0364H80.096Z" fill="#DBEFFD"/>
<path d="M38.4183 52.504V54.7644H35.2957V64.0862H32.4249V54.7644H29.3023V52.504H38.4183Z" fill="#DBEFFD"/>
<path d="M45.8944 64.0862L43.4434 59.714H42.755V64.0862H39.8843V52.504H44.7025C45.6314 52.504 46.4205 52.6635 47.0696 52.9825C47.7299 53.3015 48.2224 53.7415 48.547 54.3024C48.8715 54.8524 49.0338 55.4683 49.0338 56.1503C49.0338 56.9202 48.81 57.6077 48.3623 58.2126C47.9258 58.8176 47.2767 59.2466 46.4149 59.4995L49.1346 64.0862H45.8944ZM42.755 57.7177H44.5346C45.0606 57.7177 45.4523 57.5912 45.7098 57.3382C45.9784 57.0852 46.1127 56.7277 46.1127 56.2658C46.1127 55.8258 45.9784 55.4793 45.7098 55.2263C45.4523 54.9734 45.0606 54.8469 44.5346 54.8469H42.755V57.7177Z" fill="#DBEFFD"/>
<path d="M58.1975 62.0404H53.799L53.0939 64.0862H50.0889L54.3531 52.504H57.6771L61.9413 64.0862H58.9027L58.1975 62.0404ZM57.4589 59.8625L55.9983 55.6223L54.5545 59.8625H57.4589Z" fill="#DBEFFD"/>
<path d="M74.3277 52.504L70.1475 64.0862H66.5548L62.3745 52.504H65.43L68.3511 61.2484L71.2891 52.504H74.3277Z" fill="#DBEFFD"/>
<path d="M78.4235 54.7644V57.1072H82.268V59.285H78.4235V61.8259H82.7717V64.0862H75.5527V52.504H82.7717V54.7644H78.4235Z" fill="#DBEFFD"/>
<path d="M87.5314 61.9084H91.2919V64.0862H84.6606V52.504H87.5314V61.9084Z" fill="#DBEFFD"/>
<path d="M70.8986 86.0304C68.7782 83.933 68.6126 83.7037 68.6126 83.7037L60.3298 91.962L51.7488 83.6709C47.4418 86.7514 46.978 93.6661 49.8604 96.5171C52.7428 99.3682 60.3629 106.709 60.3629 106.709L69.9378 97.2381C73.2509 93.9938 73.2509 88.3571 70.8986 86.0304ZM68.6788 96.0256L60.3629 104.251C58.0769 102.055 53.2729 97.402 51.1525 95.2718C50.2248 94.3542 49.7278 92.5846 49.8604 90.6839C49.9929 88.9142 50.6887 87.3085 51.7157 86.0959L60.131 94.387L68.6126 86.1943C68.9108 86.4892 69.2752 86.8497 69.6728 87.2429C71.1968 88.8159 71.3956 93.3384 68.6788 96.0256Z" fill="#DBEFFD"/>
<path d="M53.1404 93.3062C52.9416 93.1096 52.5772 92.2903 52.6766 91.0123L59.5678 97.5992V94.9775L51.8151 87.5385C51.2519 88.4561 50.8875 89.5703 50.7881 90.7501C50.6555 92.3559 51.0531 93.8633 51.782 94.5843C53.5379 96.3212 57.1492 99.8604 59.5347 102.154V99.5327C57.2818 97.4026 54.5981 94.7481 53.1404 93.3062Z" fill="#DBEFFD"/>
<path d="M69.8053 90.7173C69.8053 90.8484 69.8053 91.0123 69.8053 91.1761C69.739 92.1265 69.4408 93.9289 68.0162 95.3708L61.0587 102.22V99.5983L63.7091 96.9766L63.7423 94.912L61.0587 97.5992V95.0103L68.5794 87.5385C68.712 87.6696 68.8445 87.8007 68.977 87.9318C69.2089 88.1612 69.4077 88.5216 69.5734 89.046L67.1217 91.5366L65.0013 93.6667L64.9681 95.7641L66.6909 94.06C66.7572 93.9944 66.8235 93.9289 66.8566 93.8633L69.8053 90.7173Z" fill="#DBEFFD"/>
<path d="M60.2635 79.1488L61.4893 80.394L59.2033 82.688L60.2635 83.7367L62.5826 81.4427L63.8085 82.688L60.2635 86.2273L56.6853 82.688L60.2635 79.1488Z" fill="#DBEFFD"/>
<path d="M60.2635 75.249L52.7427 82.688L60.2635 90.1271L67.7843 82.688L60.2635 75.249ZM55.0619 82.688L60.2635 77.543L65.4651 82.688L60.2635 87.8331L55.0619 82.688Z" fill="#DBEFFD"/>
<defs>
<linearGradient id="paint0_linear_1_1502" x1="60" y1="0" x2="60" y2="120" gradientUnits="userSpaceOnUse">
<stop stop-color="#033272"/>
<stop offset="1" stop-color="#9FDCFF"/>
</linearGradient>
</defs>
</svg>
