<svg width="" height="" viewBox="0 0 136 108" fill="none" xmlns="http://www.w3.org/2000/svg">
<g filter="url(#filter0_di_1_1041)">
<rect x="44" y="40" width="40" height="40" rx="20" fill="url(#paint0_linear_1_1041)" shape-rendering="crispEdges"/>
<g clip-path="url(#clip0_1_1041)">
<path d="M64 60C64.5274 60 65.043 59.8436 65.4815 59.5506C65.92 59.2576 66.2618 58.8411 66.4637 58.3538C66.6655 57.8666 66.7183 57.3304 66.6154 56.8131C66.5125 56.2958 66.2585 55.8207 65.8856 55.4477C65.5127 55.0748 65.0375 54.8208 64.5202 54.7179C64.0029 54.615 63.4668 54.6678 62.9795 54.8697C62.4922 55.0715 62.0757 55.4133 61.7827 55.8518C61.4897 56.2903 61.3333 56.8059 61.3333 57.3333C61.3333 58.0406 61.6143 58.7189 62.1144 59.219C62.6145 59.719 63.2927 60 64 60ZM64 56C64.2637 56 64.5215 56.0782 64.7407 56.2247C64.96 56.3712 65.1309 56.5795 65.2318 56.8231C65.3327 57.0667 65.3591 57.3348 65.3077 57.5935C65.2562 57.8521 65.1293 58.0897 64.9428 58.2761C64.7563 58.4626 64.5187 58.5896 64.2601 58.641C64.0015 58.6925 63.7334 58.6661 63.4897 58.5652C63.2461 58.4643 63.0379 58.2934 62.8914 58.0741C62.7448 57.8548 62.6666 57.597 62.6666 57.3333C62.6666 56.9797 62.8071 56.6406 63.0572 56.3905C63.3072 56.1405 63.6464 56 64 56ZM69.7733 58.1047L69.294 57.9453C69.3802 57.1986 69.3077 56.4421 69.081 55.7254C68.8544 55.0087 68.4789 54.348 67.979 53.7866C67.4791 53.2252 66.8662 52.7758 66.1805 52.4679C65.4947 52.16 64.7517 52.0006 64 52C63.2385 52.0003 62.4859 52.1638 61.7929 52.4795C61.0999 52.7952 60.4827 53.2557 59.9827 53.8301C59.4828 54.4045 59.1117 55.0794 58.8946 55.8092C58.6774 56.5391 58.6193 57.3071 58.724 58.0613C58.086 58.1803 57.4961 58.4813 57.0253 58.928C56.6994 59.2378 56.4404 59.611 56.264 60.0247C56.0877 60.4383 55.9978 60.8837 56 61.3333V64.05C56.0014 64.7709 56.2358 65.472 56.6684 66.0487C57.1009 66.6254 57.7083 67.0468 58.4 67.25L60.3133 67.85C60.6347 67.95 60.9694 68.0006 61.306 68C61.6113 67.9996 61.9152 67.9579 62.2093 67.876L66.0626 66.736C66.4059 66.6423 66.768 66.6423 67.1113 66.736L68.7026 67.2693C69.0948 67.3648 69.5036 67.37 69.8981 67.2845C70.2926 67.199 70.6625 67.0251 70.98 66.7758C71.2975 66.5266 71.5543 66.2085 71.731 65.8455C71.9076 65.4826 71.9996 65.0843 72 64.6807V61.248C71.9985 60.5583 71.7837 59.8859 71.385 59.323C70.9864 58.7602 70.4234 58.335 69.7733 58.1047ZM61.172 54.508C61.5428 54.1357 61.9835 53.8402 62.4688 53.6386C62.9541 53.437 63.4745 53.3333 64 53.3333C64.5255 53.3333 65.0458 53.437 65.5311 53.6386C66.0164 53.8402 66.4571 54.1357 66.828 54.508C67.5761 55.2608 67.9966 56.2785 67.998 57.3398C67.9993 58.4011 67.5815 59.42 66.8353 60.1747L64.4666 62.478C64.343 62.5992 64.1768 62.6671 64.0036 62.6671C63.8305 62.6671 63.6643 62.5992 63.5406 62.478L61.172 60.1847C60.4223 59.4303 60.0015 58.4099 60.0015 57.3463C60.0015 56.2828 60.4223 55.2624 61.172 54.508ZM70.6666 64.6807C70.6671 64.8826 70.6214 65.0819 70.5331 65.2635C70.4449 65.4452 70.3163 65.6042 70.1573 65.7287C70.0071 65.8495 69.832 65.9357 69.6447 65.9812C69.4573 66.0267 69.2622 66.0304 69.0733 65.992L67.51 65.4667C66.9186 65.2968 66.2919 65.2931 65.6986 65.456L61.8426 66.5947C61.4722 66.6969 61.0801 66.6902 60.7133 66.5753L58.784 65.9753C58.3664 65.8546 57.9993 65.6016 57.7377 65.2545C57.4761 64.9073 57.3342 64.4847 57.3333 64.05V61.3333C57.3318 61.0639 57.3854 60.7969 57.4909 60.5489C57.5964 60.301 57.7515 60.0772 57.9466 59.8913C58.2521 59.6002 58.6413 59.4122 59.0593 59.354C59.328 60.0201 59.7282 60.6253 60.236 61.1333L62.614 63.4353C62.9857 63.7993 63.4851 64.0031 64.0053 64.0031C64.5255 64.0031 65.025 63.7993 65.3966 63.4353L67.772 61.1267C68.3038 60.5927 68.7158 59.9516 68.9806 59.246L69.3386 59.3647C69.7269 59.5038 70.0628 59.7593 70.3004 60.0964C70.5381 60.4334 70.666 60.8356 70.6666 61.248V64.6807Z" fill="white"/>
</g>
</g>
<defs>
<filter id="filter0_di_1_1041" x="0" y="0" width="136" height="136" filterUnits="userSpaceOnUse" color-interpolation-filters="sRGB">
<feFlood flood-opacity="0" result="BackgroundImageFix"/>
<feColorMatrix in="SourceAlpha" type="matrix" values="0 0 0 0 0 0 0 0 0 0 0 0 0 0 0 0 0 0 127 0" result="hardAlpha"/>
<feOffset dx="4" dy="8"/>
<feGaussianBlur stdDeviation="24"/>
<feComposite in2="hardAlpha" operator="out"/>
<feColorMatrix type="matrix" values="0 0 0 0 0.360784 0 0 0 0 0.768627 0 0 0 0 0.733333 0 0 0 0.5 0"/>
<feBlend mode="normal" in2="BackgroundImageFix" result="effect1_dropShadow_1_1041"/>
<feBlend mode="normal" in="SourceGraphic" in2="effect1_dropShadow_1_1041" result="shape"/>
<feColorMatrix in="SourceAlpha" type="matrix" values="0 0 0 0 0 0 0 0 0 0 0 0 0 0 0 0 0 0 127 0" result="hardAlpha"/>
<feOffset dx="4" dy="8"/>
<feGaussianBlur stdDeviation="4"/>
<feComposite in2="hardAlpha" operator="arithmetic" k2="-1" k3="1"/>
<feColorMatrix type="matrix" values="0 0 0 0 0 0 0 0 0 0 0 0 0 0 0 0 0 0 0.1 0"/>
<feBlend mode="normal" in2="shape" result="effect2_innerShadow_1_1041"/>
</filter>
<linearGradient id="paint0_linear_1_1041" x1="44" y1="40" x2="84" y2="40" gradientUnits="userSpaceOnUse">
<stop stop-color="#84C4FF"/>
<stop offset="1" stop-color="#5CC4BB"/>
</linearGradient>
<clipPath id="clip0_1_1041">
<rect width="16" height="16" fill="white" transform="translate(56 52)"/>
</clipPath>
</defs>
</svg>
