<svg width="205" height="173" viewBox="0 0 205 173" fill="none" xmlns="http://www.w3.org/2000/svg">
<g id="Group">
<g id="Group_2">
<g id="Group_3">
<path id="Vector" d="M136.832 35.243C129.976 28.3872 129.441 27.6374 129.441 27.6374L102.661 54.6318L74.9163 27.5303C60.9907 37.5996 59.491 60.202 68.8105 69.5215C78.13 78.841 102.768 102.836 102.768 102.836L133.726 71.8782C144.438 61.2733 144.438 42.8485 136.832 35.243ZM129.655 67.9147L102.768 94.802C95.3764 87.6249 79.8438 72.4138 72.9881 65.4509C69.9888 62.4516 68.382 56.6671 68.8105 50.4541C69.2389 44.6696 71.4885 39.4207 74.8093 35.4572L102.018 62.5587L129.441 35.7786C130.405 36.7426 131.583 37.921 132.869 39.2064C137.796 44.3482 138.439 59.1308 129.655 67.9147Z" fill="white"/>
<path id="Vector_2" d="M79.4158 59.0239C78.7731 58.3811 77.5949 55.7031 77.9162 51.5254L100.197 73.0567V64.487L75.131 40.1707C73.3099 43.17 72.1316 46.8121 71.8103 50.6685C71.3818 55.9174 72.6672 60.8449 75.0239 63.2016C80.7013 68.879 92.3775 80.448 100.09 87.9464V79.3768C92.8059 72.4139 84.1291 63.7372 79.4158 59.0239Z" fill="white"/>
<path id="Vector_3" d="M133.297 50.5613C133.297 50.9898 133.297 51.5254 133.297 52.061C133.083 55.1675 132.119 61.0592 127.513 65.7725L105.017 88.1607V79.591L113.587 71.0214L113.694 64.2728L105.017 73.0567V64.5941L129.334 40.1707C129.762 40.5991 130.191 41.0276 130.619 41.4561C131.369 42.2059 132.012 43.3843 132.548 45.0982L124.621 53.2394L117.765 60.2022L117.658 67.0579L123.228 61.4876C123.442 61.2734 123.656 61.0592 123.764 60.8449L133.297 50.5613Z" fill="white"/>
<path id="Vector_4" d="M102.446 12.7476L106.41 16.8181L99.0183 24.3166L102.446 27.7444L109.945 20.246L113.908 24.3166L102.446 35.8856L90.8772 24.3166L102.446 12.7476Z" fill="white"/>
<path id="Vector_5" d="M36.6744 146.327C36.1388 147.291 31.6398 154.896 19.8565 154.896C7.32341 154.896 0.0392151 145.363 0.0392151 133.472C0.0392151 121.689 7.32341 112.048 19.8565 112.048C31.7469 112.048 36.246 119.868 36.6744 120.618L35.2819 122.01C22.4274 106.585 7.00205 116.761 7.00205 133.472C7.00205 148.79 22.3203 160.467 35.1748 145.041L36.6744 146.327Z" fill="white"/>
<path id="Vector_6" d="M72.2385 137.972C72.2385 147.291 64.8472 153.611 56.9203 153.611C48.9934 153.611 41.6021 147.398 41.6021 137.972C41.6021 128.759 48.9934 122.654 56.9203 122.654C64.8472 122.654 72.2385 128.759 72.2385 137.972ZM66.5611 137.972C66.5611 129.188 62.7048 124.367 56.9203 124.367C51.1358 124.367 47.2794 129.188 47.2794 137.972C47.2794 146.863 51.1358 151.79 56.9203 151.79C62.8119 151.79 66.5611 146.97 66.5611 137.972Z" fill="white"/>
<path id="Vector_7" d="M105.232 134.222V153.611H99.8758V134.329C99.8758 128.973 96.8764 126.081 92.5916 126.081C87.5569 126.081 83.8077 130.259 83.3792 137.115V153.611H78.0232V123.832C81.0226 123.832 83.3792 126.188 83.3792 129.188V131.973C84.986 126.617 88.8424 123.189 94.6269 123.189C100.84 123.296 105.232 127.367 105.232 134.222Z" fill="white"/>
<path id="Vector_8" d="M139.51 134.222V153.611H134.154V134.329C134.154 128.973 131.154 126.081 126.869 126.081C121.835 126.081 118.086 130.259 117.657 137.115V153.611H112.301V123.832C115.3 123.832 117.657 126.188 117.657 129.188V131.973C119.264 126.617 123.12 123.189 128.905 123.189C135.118 123.296 139.51 127.367 139.51 134.222Z" fill="white"/>
<path id="Vector_9" d="M186.536 138.721H184.286V153.718H178.93V117.404C178.93 114.405 181.287 112.048 184.286 112.048V136.793H185.572L200.247 123.938H203.14L190.285 135.079L204.961 153.718H198.748L186.536 138.721Z" fill="white"/>
<path id="Vector_10" d="M172.397 144.72C171.647 148.469 167.576 153.611 159.756 153.611C151.722 153.611 145.295 147.505 145.295 137.757C145.295 128.973 151.722 122.439 160.078 122.439C167.576 122.439 171.647 127.366 171.647 131.651C171.647 133.687 170.575 134.758 168.754 135.293L151.508 140.971C152.901 146.327 156.757 149.54 161.792 149.54C166.398 149.54 169.397 147.077 170.683 144.077C171.218 143.327 172.611 143.542 172.397 144.72ZM150.758 135.829C150.758 136.9 150.865 138.614 150.972 139.578L164.898 134.544C165.969 134.115 167.041 132.83 167.041 131.758C167.041 128.973 164.255 124.26 159.328 124.26C154.293 124.26 150.758 129.402 150.758 135.829Z" fill="white"/>
<path id="Vector_11" d="M73.8453 165.608H0.0392151V166.572H73.8453V165.608Z" fill="white"/>
<path id="Vector_12" d="M204.961 165.608H131.155V166.572H204.961V165.608Z" fill="white"/>
<path id="Vector_13" d="M83.1649 172.679V159.289H84.4504V166.037C84.7718 165.502 85.2002 165.18 85.6287 164.859C86.1643 164.645 86.6999 164.431 87.3426 164.431C87.7711 164.431 88.1997 164.538 88.6281 164.645C88.9495 164.752 89.2708 164.966 89.5921 165.18C90.1277 165.716 90.342 166.359 90.342 167.216V172.572H88.9494V167.858C88.9494 167.109 88.7352 166.466 88.4138 166.037C88.0925 165.609 87.5569 165.395 86.807 165.395C86.3785 165.395 86.0572 165.502 85.7358 165.609C85.4144 165.716 85.0932 165.93 84.8789 166.252C84.6647 166.466 84.5575 166.68 84.5575 167.001C84.4504 167.216 84.4504 167.751 84.4504 168.394V172.465H83.1649V172.679Z" fill="white"/>
<path id="Vector_14" d="M93.3415 168.715C93.3415 168.179 93.4486 167.536 93.6629 167.108C93.8771 166.572 94.1985 166.144 94.627 165.715C95.0555 165.287 95.4839 164.966 96.0195 164.751C96.5551 164.537 97.0907 164.43 97.6263 164.43C98.1619 164.43 98.6975 164.537 99.2331 164.751C99.7687 164.966 100.197 165.287 100.626 165.715C101.054 166.144 101.376 166.572 101.59 167.108C101.804 167.644 101.911 168.179 101.911 168.715C101.911 169.25 101.804 169.786 101.59 170.322C101.376 170.857 101.054 171.286 100.626 171.714C100.197 172.143 99.7687 172.464 99.2331 172.678C98.6975 172.892 98.1619 173 97.6263 173C96.9836 173 96.448 172.892 95.9124 172.678C95.3768 172.464 94.9484 172.143 94.5199 171.714C94.0914 171.286 93.77 170.857 93.5558 170.322C93.4487 169.786 93.3415 169.25 93.3415 168.715ZM94.7341 168.715C94.7341 169.572 95.0555 170.214 95.5911 170.857C96.1267 171.393 96.8764 171.714 97.6263 171.714C98.3761 171.714 99.126 171.393 99.6616 170.857C100.197 170.322 100.519 169.572 100.519 168.715C100.519 167.858 100.197 167.215 99.6616 166.572C99.126 166.037 98.4832 165.715 97.6263 165.715C96.8764 165.715 96.1267 166.037 95.5911 166.572C95.0555 167.108 94.7341 167.858 94.7341 168.715Z" fill="white"/>
<path id="Vector_15" d="M105.124 165.822H103.732V164.751H105.124V161.537H106.517V164.751H108.017V165.822H106.517V172.678H105.124V165.822Z" fill="white"/>
<path id="Vector_16" d="M117.55 168.929H111.23V169.036C111.23 169.893 111.445 170.536 111.98 171.071C112.516 171.607 113.051 171.821 113.908 171.821C114.444 171.821 114.872 171.714 115.301 171.393C115.729 171.071 116.158 170.643 116.479 170.107L117.55 170.75C117.122 171.5 116.693 172.035 116.051 172.357C115.408 172.678 114.765 172.892 113.908 172.892C112.73 172.892 111.766 172.464 111.016 171.714C110.266 170.964 109.838 169.893 109.838 168.608C109.838 167.322 110.159 166.358 110.909 165.501C111.659 164.751 112.623 164.323 113.801 164.323C114.98 164.323 115.944 164.751 116.586 165.501C117.229 166.251 117.658 167.322 117.658 168.608V168.929H117.55ZM116.051 167.751C116.051 167.429 115.944 167.108 115.836 166.787C115.729 166.465 115.515 166.251 115.301 166.037C114.872 165.608 114.337 165.501 113.587 165.501C112.944 165.501 112.409 165.715 111.98 166.144C111.552 166.572 111.337 167.108 111.23 167.751H116.051Z" fill="white"/>
<path id="Vector_17" d="M121.942 159.18H120.55V172.57H121.942V159.18Z" fill="white"/>
<path id="Vector_18" d="M102.446 0L78.13 24.3164L102.446 48.6327L126.763 24.3164L102.446 0ZM85.6284 24.3164L102.446 7.49844L119.264 24.3164L102.446 41.1343L85.6284 24.3164Z" fill="white"/>
</g>
</g>
</g>
</svg>
