<svg width="840" height="190" viewBox="0 0 840 190" fill="none" xmlns="http://www.w3.org/2000/svg">
<path d="M52.5328 1.224V13.28H27.3648V26.304H46.1968V38.008H27.3648V63H12.3168V1.224H52.5328ZM74.1698 13.28V25.776H94.3218V37.392H74.1698V50.944H96.9618V63H59.1218V1.224H96.9618V13.28H74.1698ZM120.459 13.28V25.776H140.611V37.392H120.459V50.944H143.251V63H105.411V1.224H143.251V13.28H120.459ZM166.749 51.384H186.461V63H151.701V1.224H166.749V51.384ZM262.622 1.224L241.238 42.584V63H226.19V42.584L204.806 1.224H221.878L233.846 27.096L245.726 1.224H262.622ZM296.582 63.616C290.774 63.616 285.435 62.2667 280.566 59.568C275.755 56.8693 271.912 53.1147 269.038 48.304C266.222 43.4347 264.814 37.9787 264.814 31.936C264.814 25.8933 266.222 20.4667 269.038 15.656C271.912 10.8453 275.755 7.09067 280.566 4.392C285.435 1.69333 290.774 0.343999 296.582 0.343999C302.39 0.343999 307.699 1.69333 312.51 4.392C317.379 7.09067 321.192 10.8453 323.95 15.656C326.766 20.4667 328.174 25.8933 328.174 31.936C328.174 37.9787 326.766 43.4347 323.95 48.304C321.134 53.1147 317.32 56.8693 312.51 59.568C307.699 62.2667 302.39 63.616 296.582 63.616ZM296.582 49.888C301.51 49.888 305.44 48.2453 308.374 44.96C311.366 41.6747 312.862 37.3333 312.862 31.936C312.862 26.48 311.366 22.1387 308.374 18.912C305.44 15.6267 301.51 13.984 296.582 13.984C291.595 13.984 287.606 15.5973 284.614 18.824C281.68 22.0507 280.214 26.4213 280.214 31.936C280.214 37.392 281.68 41.7627 284.614 45.048C287.606 48.2747 291.595 49.888 296.582 49.888ZM350.009 1.224V38.184C350.009 41.88 350.919 44.7253 352.737 46.72C354.556 48.7147 357.225 49.712 360.745 49.712C364.265 49.712 366.964 48.7147 368.841 46.72C370.719 44.7253 371.657 41.88 371.657 38.184V1.224H386.705V38.096C386.705 43.6107 385.532 48.2747 383.185 52.088C380.839 55.9013 377.671 58.776 373.681 60.712C369.751 62.648 365.351 63.616 360.481 63.616C355.612 63.616 351.241 62.6773 347.369 60.8C343.556 58.864 340.535 55.9893 338.305 52.176C336.076 48.304 334.961 43.6107 334.961 38.096V1.224H350.009ZM427.456 63L414.608 39.68H411V63H395.952V1.224H421.208C426.077 1.224 430.213 2.07466 433.616 3.776C437.077 5.47733 439.659 7.824 441.36 10.816C443.061 13.7493 443.912 17.0347 443.912 20.672C443.912 24.7787 442.739 28.4453 440.392 31.672C438.104 34.8987 434.701 37.1867 430.184 38.536L444.44 63H427.456ZM411 29.032H420.328C423.085 29.032 425.139 28.3573 426.488 27.008C427.896 25.6587 428.6 23.752 428.6 21.288C428.6 18.9413 427.896 17.0933 426.488 15.744C425.139 14.3947 423.085 13.72 420.328 13.72H411V29.032ZM513.807 1.224V13.28H497.439V63H482.391V13.28H466.023V1.224H513.807ZM549.255 63.616C543.447 63.616 538.108 62.2667 533.239 59.568C528.428 56.8693 524.586 53.1147 521.711 48.304C518.895 43.4347 517.487 37.9787 517.487 31.936C517.487 25.8933 518.895 20.4667 521.711 15.656C524.586 10.8453 528.428 7.09067 533.239 4.392C538.108 1.69333 543.447 0.343999 549.255 0.343999C555.063 0.343999 560.372 1.69333 565.183 4.392C570.052 7.09067 573.866 10.8453 576.623 15.656C579.439 20.4667 580.847 25.8933 580.847 31.936C580.847 37.9787 579.439 43.4347 576.623 48.304C573.807 53.1147 569.994 56.8693 565.183 59.568C560.372 62.2667 555.063 63.616 549.255 63.616ZM549.255 49.888C554.183 49.888 558.114 48.2453 561.047 44.96C564.039 41.6747 565.535 37.3333 565.535 31.936C565.535 26.48 564.039 22.1387 561.047 18.912C558.114 15.6267 554.183 13.984 549.255 13.984C544.268 13.984 540.279 15.5973 537.287 18.824C534.354 22.0507 532.887 26.4213 532.887 31.936C532.887 37.392 534.354 41.7627 537.287 45.048C540.279 48.2747 544.268 49.888 549.255 49.888ZM602.683 1.224V38.184C602.683 41.88 603.592 44.7253 605.411 46.72C607.229 48.7147 609.899 49.712 613.419 49.712C616.939 49.712 619.637 48.7147 621.515 46.72C623.392 44.7253 624.331 41.88 624.331 38.184V1.224H639.379V38.096C639.379 43.6107 638.205 48.2747 635.859 52.088C633.512 55.9013 630.344 58.776 626.355 60.712C622.424 62.648 618.024 63.616 613.155 63.616C608.285 63.616 603.915 62.6773 600.043 60.8C596.229 58.864 593.208 55.9893 590.979 52.176C588.749 48.304 587.635 43.6107 587.635 38.096V1.224H602.683ZM680.13 63L667.282 39.68H663.674V63H648.626V1.224H673.882C678.751 1.224 682.887 2.07466 686.29 3.776C689.751 5.47733 692.332 7.824 694.034 10.816C695.735 13.7493 696.586 17.0347 696.586 20.672C696.586 24.7787 695.412 28.4453 693.066 31.672C690.778 34.8987 687.375 37.1867 682.858 38.536L697.114 63H680.13ZM663.674 29.032H673.002C675.759 29.032 677.812 28.3573 679.162 27.008C680.57 25.6587 681.274 23.752 681.274 21.288C681.274 18.9413 680.57 17.0933 679.162 15.744C677.812 14.3947 675.759 13.72 673.002 13.72H663.674V29.032ZM760.496 52.088H737.44L733.744 63H717.992L740.344 1.224H757.768L780.12 63H764.192L760.496 52.088ZM756.624 40.472L748.968 17.856L741.4 40.472H756.624ZM830.043 1.224V13.28H813.675V63H798.627V13.28H782.259V1.224H830.043Z" fill="white"/>
<path d="M0.375937 143.24C0.375937 134.227 2.32594 126.21 6.22594 119.19C10.1259 112.083 15.5426 106.58 22.4759 102.68C29.4959 98.6933 37.4259 96.7 46.2659 96.7C57.0993 96.7 66.3726 99.56 74.0859 105.28C81.7993 111 86.9559 118.8 89.5559 128.68H65.1159C63.2959 124.867 60.6959 121.963 57.3159 119.97C54.0226 117.977 50.2526 116.98 46.0059 116.98C39.1593 116.98 33.6126 119.363 29.3659 124.13C25.1193 128.897 22.9959 135.267 22.9959 143.24C22.9959 151.213 25.1193 157.583 29.3659 162.35C33.6126 167.117 39.1593 169.5 46.0059 169.5C50.2526 169.5 54.0226 168.503 57.3159 166.51C60.6959 164.517 63.2959 161.613 65.1159 157.8H89.5559C86.9559 167.68 81.7993 175.48 74.0859 181.2C66.3726 186.833 57.0993 189.65 46.2659 189.65C37.4259 189.65 29.4959 187.7 22.4759 183.8C15.5426 179.813 10.1259 174.31 6.22594 167.29C2.32594 160.27 0.375937 152.253 0.375937 143.24ZM144.379 189.91C135.799 189.91 127.913 187.917 120.719 183.93C113.613 179.943 107.936 174.397 103.689 167.29C99.5294 160.097 97.4494 152.037 97.4494 143.11C97.4494 134.183 99.5294 126.167 103.689 119.06C107.936 111.953 113.613 106.407 120.719 102.42C127.913 98.4333 135.799 96.44 144.379 96.44C152.959 96.44 160.803 98.4333 167.909 102.42C175.103 106.407 180.736 111.953 184.809 119.06C188.969 126.167 191.049 134.183 191.049 143.11C191.049 152.037 188.969 160.097 184.809 167.29C180.649 174.397 175.016 179.943 167.909 183.93C160.803 187.917 152.959 189.91 144.379 189.91ZM144.379 169.63C151.659 169.63 157.466 167.203 161.799 162.35C166.219 157.497 168.429 151.083 168.429 143.11C168.429 135.05 166.219 128.637 161.799 123.87C157.466 119.017 151.659 116.59 144.379 116.59C137.013 116.59 131.119 118.973 126.699 123.74C122.366 128.507 120.199 134.963 120.199 143.11C120.199 151.17 122.366 157.627 126.699 162.48C131.119 167.247 137.013 169.63 144.379 169.63ZM283.107 189H260.877L223.697 132.71V189H201.467V97.74H223.697L260.877 154.29V97.74H283.107V189ZM378.911 189H356.681L319.501 132.71V189H297.271V97.74H319.501L356.681 154.29V97.74H378.911V189ZM415.304 115.55V134.01H445.074V151.17H415.304V171.19H448.974V189H393.074V97.74H448.974V115.55H415.304ZM514.366 189L483.686 148.7V189H461.456V97.74H483.686V137.78L514.106 97.74H540.236L504.876 142.46L541.536 189H514.366ZM641.4 97.74V115.55H617.22V189H594.99V115.55H570.81V97.74H641.4ZM697.147 189L678.167 154.55H672.837V189H650.607V97.74H687.917C695.11 97.74 701.22 98.9967 706.247 101.51C711.36 104.023 715.173 107.49 717.687 111.91C720.2 116.243 721.457 121.097 721.457 126.47C721.457 132.537 719.723 137.953 716.257 142.72C712.877 147.487 707.85 150.867 701.177 152.86L722.237 189H697.147ZM672.837 138.82H686.617C690.69 138.82 693.723 137.823 695.717 135.83C697.797 133.837 698.837 131.02 698.837 127.38C698.837 123.913 697.797 121.183 695.717 119.19C693.723 117.197 690.69 116.2 686.617 116.2H672.837V138.82ZM755.691 97.74V189H733.461V97.74H755.691ZM839.401 127.12C839.401 132.407 838.188 137.26 835.761 141.68C833.334 146.013 829.608 149.523 824.581 152.21C819.554 154.897 813.314 156.24 805.861 156.24H792.081V189H769.851V97.74H805.861C813.141 97.74 819.294 98.9967 824.321 101.51C829.348 104.023 833.118 107.49 835.631 111.91C838.144 116.33 839.401 121.4 839.401 127.12ZM804.171 138.56C808.418 138.56 811.581 137.563 813.661 135.57C815.741 133.577 816.781 130.76 816.781 127.12C816.781 123.48 815.741 120.663 813.661 118.67C811.581 116.677 808.418 115.68 804.171 115.68H792.081V138.56H804.171Z" fill="url(#paint0_linear_1_1428)"/>
<defs>
<linearGradient id="paint0_linear_1_1428" x1="-4" y1="98.5" x2="843" y2="98.4999" gradientUnits="userSpaceOnUse">
<stop stop-color="#2E3192"/>
<stop offset="1" stop-color="#1BFFFF"/>
</linearGradient>
</defs>
</svg>
